<svg xmlns="http://www.w3.org/2000/svg" version="1.1" xmlns:xlink="http://www.w3.org/1999/xlink" xmlns:svgjs="http://svgjs.dev/svgjs" width="1440" height="560" preserveAspectRatio="none" viewBox="0 0 1440 560"><g mask="url(&quot;#SvgjsMask2176&quot;)" fill="none"><rect width="1440" height="560" x="0" y="0" fill="url(&quot;#SvgjsLinearGradient2177&quot;)"></rect><path d="M553.893965934055 49.608632876852155L500.80065684194614 128.32270062599537 579.5147245910894 181.41600971810425 632.6080336831983 102.70194196896105z" fill="rgba(0, 22, 132, 0.67)" class="triangle-float2"></path><path d="M510.5787621066831 445.2601681599233L453.6836596595049 556.9230939345471 565.3465854341287 613.8181963817253 622.2416878813069 502.15527060710156z" fill="rgba(0, 22, 132, 0.67)" class="triangle-float3"></path><path d="M796.199,772.717C848.462,773.57,883.511,725.567,909.596,680.271C935.612,635.094,959.268,580.842,932.433,536.146C906.063,492.224,847.286,487.575,796.199,491.401C752.624,494.664,713.127,516.382,691.248,554.207C669.338,592.087,670.089,637.226,689.035,676.672C711.294,723.016,744.794,771.878,796.199,772.717" fill="rgba(0, 22, 132, 0.67)" class="triangle-float1"></path><path d="M544.989,766.216C592.614,764.161,628.517,728.914,653.172,688.116C678.963,645.439,698.634,594.482,675.457,550.331C651.003,503.747,597.601,481.964,544.989,482.033C492.507,482.102,441.487,505.299,415.112,550.672C388.613,596.26,392.119,653.039,419.333,698.204C445.679,741.927,493.989,768.416,544.989,766.216" fill="rgba(0, 22, 132, 0.67)" class="triangle-float1"></path><path d="M640.612,227.391C662.232,227.92,682.032,215.981,693.242,197.487C704.898,178.256,708.849,153.65,696.826,134.646C685.407,116.597,661.919,112.833,640.612,114.303C622.097,115.581,605.937,125.655,596.4,141.576C586.559,158.004,583.491,177.992,592.262,195.016C601.783,213.497,619.829,226.882,640.612,227.391" fill="rgba(0, 22, 132, 0.67)" class="triangle-float2"></path><path d="M170.54,679.076C218.712,681.533,264.078,651.733,285.709,608.62C305.532,569.112,290.452,523.916,267.274,486.278C245.475,450.88,212.109,421.102,170.54,421.605C129.669,422.1,97.407,452.718,77.779,488.571C59.025,522.828,56.971,562.711,74.069,597.825C93.796,638.338,125.538,676.781,170.54,679.076" fill="rgba(0, 22, 132, 0.67)" class="triangle-float2"></path><path d="M1389.450030599112 324.4942490191411L1474.2370075729593 269.4329423680622 1419.1757009218804 184.64596539421487 1334.3887239480332 239.7072720452938z" fill="rgba(0, 22, 132, 0.67)" class="triangle-float2"></path><path d="M1244.2041701804742 121.40639691852768L1270.8092199081586 22.1149995969123 1171.5178225865434-4.4900501307722465 1144.9127728588587 94.80134719084313z" fill="rgba(0, 22, 132, 0.67)" class="triangle-float2"></path><path d="M665.6764607939692 611.6195077881376L787.1527030460808 637.440080165841 691.4970331716726 490.1432655360261z" fill="rgba(0, 22, 132, 0.67)" class="triangle-float1"></path></g><defs><mask id="SvgjsMask2176"><rect width="1440" height="560" fill="#ffffff"></rect></mask><linearGradient x1="50%" y1="100%" x2="50%" y2="0%" gradientUnits="userSpaceOnUse" id="SvgjsLinearGradient2177"><stop stop-color="rgba(245, 246, 247, 1)" offset="0.01"></stop><stop stop-color="rgba(22, 150, 255, 1)" offset="1"></stop></linearGradient><style>
                @keyframes float1 {
                    0%{transform: translate(0, 0)}
                    50%{transform: translate(-10px, 0)}
                    100%{transform: translate(0, 0)}
                }

                .triangle-float1 {
                    animation: float1 5s infinite;
                }

                @keyframes float2 {
                    0%{transform: translate(0, 0)}
                    50%{transform: translate(-5px, -5px)}
                    100%{transform: translate(0, 0)}
                }

                .triangle-float2 {
                    animation: float2 4s infinite;
                }

                @keyframes float3 {
                    0%{transform: translate(0, 0)}
                    50%{transform: translate(0, -10px)}
                    100%{transform: translate(0, 0)}
                }

                .triangle-float3 {
                    animation: float3 6s infinite;
                }
            </style></defs></svg>